<mxfile host="Electron" agent="Mozilla/5.0 (Macintosh; Intel Mac OS X 10_15_7) AppleWebKit/537.36 (KHTML, like Gecko) draw.io/24.7.8 Chrome/128.0.6613.36 Electron/32.0.1 Safari/537.36" version="24.7.8" pages="2">
  <diagram name="Java mp" id="5iLN_thjQjd2hWZ-iP5v">
    <mxGraphModel dx="2280" dy="1536" grid="1" gridSize="10" guides="1" tooltips="1" connect="1" arrows="1" fold="1" page="1" pageScale="1" pageWidth="827" pageHeight="1169" math="0" shadow="0">
      <root>
        <mxCell id="0" />
        <mxCell id="1" parent="0" />
        <mxCell id="3xPK2aOOB4YJp41Shbjn-3" value="" style="group" parent="1" vertex="1" connectable="0">
          <mxGeometry x="70" y="220" width="1110" height="470" as="geometry" />
        </mxCell>
        <mxCell id="3xPK2aOOB4YJp41Shbjn-1" value="" style="rounded=0;whiteSpace=wrap;html=1;" parent="3xPK2aOOB4YJp41Shbjn-3" vertex="1">
          <mxGeometry width="350" height="470" as="geometry" />
        </mxCell>
        <mxCell id="3xPK2aOOB4YJp41Shbjn-2" value="Sender Network" style="text;html=1;align=center;verticalAlign=middle;whiteSpace=wrap;rounded=0;" parent="3xPK2aOOB4YJp41Shbjn-3" vertex="1">
          <mxGeometry width="200" height="30" as="geometry" />
        </mxCell>
        <mxCell id="3xPK2aOOB4YJp41Shbjn-7" value="micro-sender ms" style="rounded=0;whiteSpace=wrap;html=1;fillColor=#f5f5f5;fontColor=#333333;strokeColor=#666666;" parent="3xPK2aOOB4YJp41Shbjn-3" vertex="1">
          <mxGeometry x="25" y="30" width="300" height="50" as="geometry" />
        </mxCell>
        <mxCell id="3xPK2aOOB4YJp41Shbjn-21" value="" style="group" parent="3xPK2aOOB4YJp41Shbjn-3" vertex="1" connectable="0">
          <mxGeometry x="370" width="740" height="470" as="geometry" />
        </mxCell>
        <mxCell id="3xPK2aOOB4YJp41Shbjn-5" value="" style="rounded=0;whiteSpace=wrap;html=1;" parent="3xPK2aOOB4YJp41Shbjn-21" vertex="1">
          <mxGeometry width="740" height="470" as="geometry" />
        </mxCell>
        <mxCell id="3xPK2aOOB4YJp41Shbjn-6" value="Recipient Network" style="text;html=1;align=center;verticalAlign=middle;whiteSpace=wrap;rounded=0;" parent="3xPK2aOOB4YJp41Shbjn-21" vertex="1">
          <mxGeometry width="740" height="29.361702127659573" as="geometry" />
        </mxCell>
        <mxCell id="3xPK2aOOB4YJp41Shbjn-10" value="micro-recipient ms" style="rounded=0;whiteSpace=wrap;html=1;fillColor=#f5f5f5;fontColor=#333333;strokeColor=#666666;" parent="3xPK2aOOB4YJp41Shbjn-21" vertex="1">
          <mxGeometry x="40" y="30" width="320" height="180" as="geometry" />
        </mxCell>
        <mxCell id="5R5SwLo5eU0a6IkyQNxl-13" style="edgeStyle=orthogonalEdgeStyle;rounded=0;orthogonalLoop=1;jettySize=auto;html=1;entryX=0.75;entryY=1;entryDx=0;entryDy=0;" parent="3xPK2aOOB4YJp41Shbjn-21" source="3xPK2aOOB4YJp41Shbjn-13" target="3xPK2aOOB4YJp41Shbjn-34" edge="1">
          <mxGeometry relative="1" as="geometry" />
        </mxCell>
        <mxCell id="3xPK2aOOB4YJp41Shbjn-13" value="micro-collector ms" style="rounded=0;whiteSpace=wrap;html=1;fillColor=#f5f5f5;fontColor=#333333;strokeColor=#666666;" parent="3xPK2aOOB4YJp41Shbjn-21" vertex="1">
          <mxGeometry x="490" y="29.36" width="240" height="180.64" as="geometry" />
        </mxCell>
        <mxCell id="5R5SwLo5eU0a6IkyQNxl-11" style="edgeStyle=orthogonalEdgeStyle;rounded=0;orthogonalLoop=1;jettySize=auto;html=1;entryX=0.5;entryY=0;entryDx=0;entryDy=0;" parent="3xPK2aOOB4YJp41Shbjn-21" source="3xPK2aOOB4YJp41Shbjn-27" target="3xPK2aOOB4YJp41Shbjn-34" edge="1">
          <mxGeometry relative="1" as="geometry" />
        </mxCell>
        <mxCell id="3xPK2aOOB4YJp41Shbjn-27" value="in-memory db" style="shape=cylinder3;whiteSpace=wrap;html=1;boundedLbl=1;backgroundOutline=1;size=15;" parent="3xPK2aOOB4YJp41Shbjn-21" vertex="1">
          <mxGeometry x="280" y="40" width="68.72" height="80" as="geometry" />
        </mxCell>
        <mxCell id="3xPK2aOOB4YJp41Shbjn-31" value="" style="ellipse;whiteSpace=wrap;html=1;aspect=fixed;" parent="3xPK2aOOB4YJp41Shbjn-21" vertex="1">
          <mxGeometry x="175" y="200" width="20" height="20" as="geometry" />
        </mxCell>
        <mxCell id="5R5SwLo5eU0a6IkyQNxl-9" style="edgeStyle=orthogonalEdgeStyle;rounded=0;orthogonalLoop=1;jettySize=auto;html=1;entryX=0.5;entryY=1;entryDx=0;entryDy=0;" parent="3xPK2aOOB4YJp41Shbjn-21" source="5R5SwLo5eU0a6IkyQNxl-7" target="3xPK2aOOB4YJp41Shbjn-31" edge="1">
          <mxGeometry relative="1" as="geometry" />
        </mxCell>
        <mxCell id="5R5SwLo5eU0a6IkyQNxl-7" value="rabbitmq" style="rounded=0;whiteSpace=wrap;html=1;fillColor=#fff2cc;strokeColor=#d6b656;" parent="3xPK2aOOB4YJp41Shbjn-21" vertex="1">
          <mxGeometry y="280" width="180" height="60" as="geometry" />
        </mxCell>
        <mxCell id="5R5SwLo5eU0a6IkyQNxl-10" style="edgeStyle=orthogonalEdgeStyle;rounded=0;orthogonalLoop=1;jettySize=auto;html=1;entryX=0;entryY=0.5;entryDx=0;entryDy=0;entryPerimeter=0;" parent="3xPK2aOOB4YJp41Shbjn-21" source="3xPK2aOOB4YJp41Shbjn-31" target="3xPK2aOOB4YJp41Shbjn-27" edge="1">
          <mxGeometry relative="1" as="geometry">
            <Array as="points">
              <mxPoint x="185" y="95" />
            </Array>
          </mxGeometry>
        </mxCell>
        <mxCell id="3xPK2aOOB4YJp41Shbjn-34" value="GET &quot;/message&quot;" style="rounded=0;whiteSpace=wrap;html=1;" parent="3xPK2aOOB4YJp41Shbjn-21" vertex="1">
          <mxGeometry x="256.91999999999996" y="180" width="103.08" height="60" as="geometry" />
        </mxCell>
        <mxCell id="5R5SwLo5eU0a6IkyQNxl-12" value="logging" style="rounded=0;whiteSpace=wrap;html=1;" parent="3xPK2aOOB4YJp41Shbjn-21" vertex="1">
          <mxGeometry x="250" y="220" width="70" height="40" as="geometry" />
        </mxCell>
        <mxCell id="3xPK2aOOB4YJp41Shbjn-36" value="clean the DB" style="rounded=0;whiteSpace=wrap;html=1;" parent="3xPK2aOOB4YJp41Shbjn-21" vertex="1">
          <mxGeometry x="195" y="140" width="120" height="20" as="geometry" />
        </mxCell>
        <mxCell id="3xPK2aOOB4YJp41Shbjn-26" value="logging" style="rounded=0;whiteSpace=wrap;html=1;" parent="3xPK2aOOB4YJp41Shbjn-3" vertex="1">
          <mxGeometry x="190" y="210" width="70" height="40" as="geometry" />
        </mxCell>
        <mxCell id="3xPK2aOOB4YJp41Shbjn-25" value="message to rabbitmq" style="rounded=0;whiteSpace=wrap;html=1;" parent="3xPK2aOOB4YJp41Shbjn-3" vertex="1">
          <mxGeometry y="390" width="70" height="40" as="geometry" />
        </mxCell>
        <mxCell id="3xPK2aOOB4YJp41Shbjn-11" value="rabbitmq" style="rounded=0;whiteSpace=wrap;html=1;fillColor=#fff2cc;strokeColor=#d6b656;" parent="3xPK2aOOB4YJp41Shbjn-3" vertex="1">
          <mxGeometry x="170" y="280" width="180" height="60" as="geometry" />
        </mxCell>
        <mxCell id="5R5SwLo5eU0a6IkyQNxl-4" value="1.2" style="edgeStyle=orthogonalEdgeStyle;rounded=0;orthogonalLoop=1;jettySize=auto;html=1;exitX=1;exitY=0.5;exitDx=0;exitDy=0;entryX=0.5;entryY=0;entryDx=0;entryDy=0;" parent="3xPK2aOOB4YJp41Shbjn-3" source="3xPK2aOOB4YJp41Shbjn-22" target="3xPK2aOOB4YJp41Shbjn-11" edge="1">
          <mxGeometry relative="1" as="geometry" />
        </mxCell>
        <mxCell id="3xPK2aOOB4YJp41Shbjn-22" value="&lt;font style=&quot;font-size: 11px;&quot;&gt;POST /notification&lt;/font&gt;&lt;div style=&quot;line-height: 110%; font-size: 11px;&quot;&gt;&lt;font style=&quot;font-size: 11px;&quot;&gt;&lt;br&gt;{&quot;user&quot;: &quot;Name LastName&quot;,&lt;br&gt;&quot;message&quot;: &quot;String&quot; }&lt;/font&gt;&lt;br&gt;&lt;/div&gt;" style="rounded=0;whiteSpace=wrap;html=1;" parent="3xPK2aOOB4YJp41Shbjn-3" vertex="1">
          <mxGeometry x="30" y="70" width="190" height="80" as="geometry" />
        </mxCell>
        <mxCell id="5R5SwLo5eU0a6IkyQNxl-2" style="edgeStyle=orthogonalEdgeStyle;rounded=0;orthogonalLoop=1;jettySize=auto;html=1;entryX=0.5;entryY=1;entryDx=0;entryDy=0;" parent="1" source="5R5SwLo5eU0a6IkyQNxl-1" target="3xPK2aOOB4YJp41Shbjn-22" edge="1">
          <mxGeometry relative="1" as="geometry" />
        </mxCell>
        <mxCell id="5R5SwLo5eU0a6IkyQNxl-5" value="1.1" style="edgeLabel;html=1;align=center;verticalAlign=middle;resizable=0;points=[];" parent="5R5SwLo5eU0a6IkyQNxl-2" vertex="1" connectable="0">
          <mxGeometry x="0.4374" y="4" relative="1" as="geometry">
            <mxPoint as="offset" />
          </mxGeometry>
        </mxCell>
        <mxCell id="5R5SwLo5eU0a6IkyQNxl-1" value="" style="rounded=0;whiteSpace=wrap;html=1;" parent="1" vertex="1">
          <mxGeometry x="140" y="790" width="320" height="80" as="geometry" />
        </mxCell>
      </root>
    </mxGraphModel>
  </diagram>
  <diagram id="zcoXDFpSpbUZeUqGVnMg" name="Page-2">
    <mxGraphModel dx="1026" dy="691" grid="1" gridSize="10" guides="1" tooltips="1" connect="1" arrows="1" fold="1" page="1" pageScale="1" pageWidth="827" pageHeight="1169" math="0" shadow="0">
      <root>
        <mxCell id="0" />
        <mxCell id="1" parent="0" />
      </root>
    </mxGraphModel>
  </diagram>
</mxfile>
